<svg xmlns="http://www.w3.org/2000/svg" width="13" height="20" viewBox="0 0 13 20"><path fill="#fff" d="M11.8 12.9c-.4-.6-1-1-1.5-1.5l-.9-.7c-1-.9-.9-1.7 0-2.5 1.3-1 2.2-2.1 2.2-3.7 0-1.4-.7-2.7-1.9-3.5h1.6L13 0H7.6C5.9 0 4.3.4 3 1.4 1.5 2.8.8 4.9 1.7 6.8 2.6 8.6 4.5 9.2 6.4 9c-.4 1.1-.1 1.9.6 2.8-2.2.1-5.2.5-6.4 2.6-1.4 2.4.2 4.6 2.6 5.3 2.3.7 5.1.4 7.1-.9 1.9-1.3 2.9-3.9 1.5-5.9-.2-.3.2.2 0 0zm-5-4.6C3.6 8.3 2 1.4 5.6.9c3.7-.6 5.5 7.4 1.2 7.4zm2.9 9.8c-1.6 1.3-4.6 1-6.2-.1-.9-.7-1.4-1.8-1.2-3 .3-1 1.3-1.7 2.2-2 1-.3 2.3-.6 3.3-.4.9.6 2 1.3 2.5 2.3.7 1 .4 2.4-.6 3.2-.6.5.7-.6 0 0z"/></svg>