<svg xmlns="http://www.w3.org/2000/svg" width="40" height="30" viewBox="0 0 40 30"><path d="M34.58,9a.88.88,0,0,1-.73-.43.83.83,0,0,1,.31-1.15h0l3.07-1.74a.84.84,0,0,1,1.15.27s0,0,0,0a.83.83,0,0,1-.31,1.15h0L35,8.89A.84.84,0,0,1,34.58,9Z"/><path d="M39.14,12.82H35.61a.85.85,0,1,1,0-1.69h3.53a.85.85,0,1,1,0,1.69Z"/><path d="M37.64,18.37a.81.81,0,0,1-.41-.11l-3.12-1.74a.83.83,0,0,1-.32-1.15h0A.85.85,0,0,1,34.92,15l0,0L38,16.8A.84.84,0,0,1,38.36,18h0A.82.82,0,0,1,37.64,18.37Z"/><path d="M31.66,6.14A.88.88,0,0,1,31.24,6a.84.84,0,0,1-.31-1.16h0l1.78-3a.85.85,0,0,1,1.13-.33l0,0a.83.83,0,0,1,.3,1.15h0l-1.8,3A.82.82,0,0,1,31.66,6.14Z"/><path d="M27.77,5.14a.83.83,0,0,1-.84-.83h0V.83A.83.83,0,0,1,27.77,0a.84.84,0,0,1,.85.83V4.3a.84.84,0,0,1-.84.84Z"/><path d="M34.52,20.14l-3-5.15a.82.82,0,0,0,.25-.2,4.78,4.78,0,0,0-1-6.79,5,5,0,0,0-3.56-.93.75.75,0,0,0-.29.09l-3-5.08A2.17,2.17,0,0,0,21,1.28a2.1,2.1,0,0,0-1,2.43c-.11,0-15.61,16.8-15.61,16.8l-.67-1.16-1.54.88a2.53,2.53,0,0,0-1,3.47,2.5,2.5,0,0,0-.82,3.46l.43.75a2.61,2.61,0,0,0,2.25,1.27,2.64,2.64,0,0,0,1.17-.3,2.6,2.6,0,0,0,3.44.77l1.54-.87-.67-1.16,2.11-.45.66,1.16a3.55,3.55,0,0,0,3,1.67,3.84,3.84,0,0,0,.76-.08l3.17-.67a3.46,3.46,0,0,0,2.67-4.14l0-.13s10.15-2.2,10.25-2.31a2.18,2.18,0,0,0,3,0,2.07,2.07,0,0,0,.32-2.54ZM2.26,27.07l-.44-.75a.83.83,0,0,1,.23-1.16l1.3,2.23A.91.91,0,0,1,2.26,27Zm3-5.15c.07,0,15.55-16.75,15.55-16.75l9.4,16S7.75,26.07,7.68,26.12Zm14,4.62a1.78,1.78,0,0,1-1.28,1l-3.18.67a1.83,1.83,0,0,1-2-.85l-.38-.65,6.86-1.35A1.78,1.78,0,0,1,19.19,26.54ZM33.1,21.27a.47.47,0,0,1-.21.27.49.49,0,0,1-.65-.17L21.66,3.44a.42.42,0,0,1,0-.31.47.47,0,0,1,.21-.27.5.5,0,0,1,.65.17L33.1,21a.36.36,0,0,1,0,.27Z"/></svg>