<svg xmlns="http://www.w3.org/2000/svg" width="22" height="20" viewBox="0 0 22 20"><path d="M22,9.94a8.94,8.94,0,0,0-5-8,.65.65,0,0,0-.86.3.66.66,0,0,0,.3.87,7.61,7.61,0,0,1-.08,13.72.64.64,0,0,0-.32.86.65.65,0,0,0,.59.37.53.53,0,0,0,.27-.06A8.91,8.91,0,0,0,22,9.94Z"/><path d="M15.94,4.76a.63.63,0,0,0-.89.18.65.65,0,0,0,.18.9,4.93,4.93,0,0,1,.21,8.05.65.65,0,0,0-.13.9.61.61,0,0,0,.51.27.7.7,0,0,0,.39-.13,6.23,6.23,0,0,0-.27-10.17Z"/><path d="M12.17.06a.58.58,0,0,0-.62.07l-5,4.05h-6A.58.58,0,0,0,0,4.77V15.23a.58.58,0,0,0,.59.59h6l5,4.05a.54.54,0,0,0,.37.13.57.57,0,0,0,.25-.06.59.59,0,0,0,.33-.53V.59A.59.59,0,0,0,12.17.06Z"/></svg>