<svg xmlns="http://www.w3.org/2000/svg" width="140" height="120" viewBox="0 0 140 120"><title>Illutration de l&apos;identité visuelle</title><desc>Un faux logo.</desc><g fill="#141412"><path d="M82.9 102.8v5.7h9.9c-2 3.4-5.7 5.7-9.9 5.7-6.3 0-11.4-5.1-11.4-11.4s5.1-11.4 11.4-11.4c4.2 0 7.9 2.3 9.9 5.7h6.3c-2.4-6.7-8.7-11.4-16.2-11.4-9.5 0-17.1 7.7-17.1 17.1 0 9.4 7.7 17.1 17.1 17.1 9.5 0 17.1-7.7 17.1-17.1H82.9zM122.9 85.7c-9.5 0-17.1 7.7-17.1 17.1 0 9.4 7.7 17.1 17.1 17.1 9.5 0 17.1-7.7 17.1-17.1 0-9.4-7.7-17.1-17.1-17.1zm0 28.6c-6.3 0-11.4-5.1-11.4-11.4 0-6.3 5.1-11.4 11.4-11.4 6.3 0 11.4 5.1 11.4 11.4 0 6.3-5.1 11.4-11.4 11.4zM42.9 85.7c-9.5 0-17.1 7.7-17.1 17.1 0 9.4 7.6 17.2 17.1 17.2S60 112.3 60 102.9c0-9.4-7.7-17.2-17.1-17.2zm0 28.6c-6.3 0-11.4-5.1-11.4-11.4 0-6.3 5.1-11.4 11.4-11.4 6.3 0 11.4 5.1 11.4 11.4 0 6.3-5.1 11.4-11.4 11.4zM5.7 114.3V85.7H0V120h22.9v-5.7z"/></g><path fill="#CBCCCC" d="M44.3 7.3h51.5v51.5H44.3z"/><circle fill="#989898" cx="95.2" cy="21.6" r="21.6"/><path fill="#4B4B4A" d="M62.4 74.3L23.2 57l33.9-24.3z"/></svg>