<svg xmlns="http://www.w3.org/2000/svg" viewBox="0 0 50 50"><title>logo</title><path d="M0,0H50V50H0Z" fill="#2a1010"/><path d="M3,46v-11H6v8.33h5V46Z" fill="#fffefe"/><path d="M17.29,46A5.24,5.24,0,0,1,15,45.52a5.72,5.72,0,0,1-1.75-1.26,5.66,5.66,0,0,1-1.12-1.78,5.47,5.47,0,0,1-.4-2.06,5.43,5.43,0,0,1,1.58-3.85,5.65,5.65,0,0,1,1.77-1.22,5.42,5.42,0,0,1,2.25-.46,5.28,5.28,0,0,1,2.27.48,5.54,5.54,0,0,1,1.74,1.27,5.64,5.64,0,0,1,1.12,1.79,5.57,5.57,0,0,1,.39,2,5.25,5.25,0,0,1-.42,2.07,5.47,5.47,0,0,1-1.15,1.76,5.85,5.85,0,0,1-1.77,1.23A5.34,5.34,0,0,1,17.29,46ZM14.8,40.45A3.51,3.51,0,0,0,15,41.52a2.74,2.74,0,0,0,.46.92,2.24,2.24,0,0,0,.78.64,2.32,2.32,0,0,0,1.12.25,2.34,2.34,0,0,0,1.12-.25,2.21,2.21,0,0,0,.78-.67,2.87,2.87,0,0,0,.45-.93,3.82,3.82,0,0,0,.15-1.06,3.86,3.86,0,0,0-.16-1.08,2.72,2.72,0,0,0-.47-.91,2.35,2.35,0,0,0-.79-.63,2.38,2.38,0,0,0-1.1-.24,2.3,2.3,0,0,0-1.9.9,3,3,0,0,0-.45.93A3.77,3.77,0,0,0,14.8,40.45Z" fill="#fffefe"/><path d="M32.05,45a4.06,4.06,0,0,1-2.7,1,5.64,5.64,0,0,1-2-.38,4.89,4.89,0,0,1-1.69-1.1,5.28,5.28,0,0,1-1.16-1.78A6.14,6.14,0,0,1,24,40.35a5.33,5.33,0,0,1,1.62-3.88,5.51,5.51,0,0,1,1.78-1.15,5.58,5.58,0,0,1,2.21-.43,6.5,6.5,0,0,1,1.42.16,5.14,5.14,0,0,1,1.26.48,5,5,0,0,1,1,.76,3.84,3.84,0,0,1,.76,1L31.88,39a2.58,2.58,0,0,0-1-1,2.61,2.61,0,0,0-1.37-.39,2.18,2.18,0,0,0-1,.22,2.15,2.15,0,0,0-.77.6,2.74,2.74,0,0,0-.51.92,3.67,3.67,0,0,0,0,2.33,2.79,2.79,0,0,0,.51.91,2.42,2.42,0,0,0,.8.58,2.46,2.46,0,0,0,1,.21,3.08,3.08,0,0,0,2.32-1.08H30V40.09h4.5v5.83H32.05Z" fill="#fffefe"/><path d="M41.42,46a5.24,5.24,0,0,1-2.27-.48,5.72,5.72,0,0,1-1.75-1.26,5.66,5.66,0,0,1-1.12-1.78,5.47,5.47,0,0,1-.4-2.06,5.43,5.43,0,0,1,1.58-3.85,5.65,5.65,0,0,1,1.77-1.22,5.39,5.39,0,0,1,2.25-.46,5.2,5.2,0,0,1,2.26.48,5.59,5.59,0,0,1,1.75,1.27,5.82,5.82,0,0,1,1.12,1.79,5.57,5.57,0,0,1,.39,2,5.25,5.25,0,0,1-.42,2.07,5.47,5.47,0,0,1-1.15,1.76,5.85,5.85,0,0,1-1.77,1.23A5.34,5.34,0,0,1,41.42,46Zm-2.49-5.55a3.51,3.51,0,0,0,.16,1.07,2.74,2.74,0,0,0,.46.92,2.24,2.24,0,0,0,.78.64,2.29,2.29,0,0,0,1.12.25,2.34,2.34,0,0,0,1.12-.25,2.21,2.21,0,0,0,.78-.67,2.87,2.87,0,0,0,.45-.93A3.82,3.82,0,0,0,44,40.42a3.86,3.86,0,0,0-.16-1.08,2.72,2.72,0,0,0-.47-.91,2.35,2.35,0,0,0-.79-.63,2.38,2.38,0,0,0-1.1-.24,2.3,2.3,0,0,0-1.9.9,3,3,0,0,0-.45.93A3.77,3.77,0,0,0,38.93,40.45Z" fill="#fffefe"/></svg>