<svg xmlns="http://www.w3.org/2000/svg" width="40" height="10" viewBox="0 0 40 10"><title>logo-footer</title><path d="M0,10V.1H2.73V7.6H7.27V10Z" fill="#f9f5ec"/><path d="M13,10a4.94,4.94,0,0,1-2.08-.43A5.15,5.15,0,0,1,9.32,8.43a5.08,5.08,0,0,1-1-1.6A4.91,4.91,0,0,1,7.94,5,4.86,4.86,0,0,1,9.37,1.51,5.42,5.42,0,0,1,11,.41,5,5,0,0,1,13,0a4.88,4.88,0,0,1,2.06.43,5,5,0,0,1,1.58,1.15,4.85,4.85,0,0,1,1,1.61A5,5,0,0,1,18.05,5a4.6,4.6,0,0,1-.39,1.86,4.77,4.77,0,0,1-1,1.58A5.27,5.27,0,0,1,15,9.54,4.85,4.85,0,0,1,13,10ZM10.73,5a3.2,3.2,0,0,0,.18,1,2.41,2.41,0,0,0,.42.83,2,2,0,0,0,.71.57,2.35,2.35,0,0,0,2,0,2,2,0,0,0,.71-.6,2.43,2.43,0,0,0,.41-.84A3.41,3.41,0,0,0,15.33,5a3.17,3.17,0,0,0-.15-1,2.3,2.3,0,0,0-.43-.82A2.06,2.06,0,0,0,14,2.62a2.31,2.31,0,0,0-1-.22,2.1,2.1,0,0,0-1.73.81,2.73,2.73,0,0,0-.41.84A3.45,3.45,0,0,0,10.73,5Z" fill="#f9f5ec"/><path d="M26.41,9.1A3.68,3.68,0,0,1,24,10a5.1,5.1,0,0,1-1.81-.34,4.47,4.47,0,0,1-1.54-1,4.68,4.68,0,0,1-1.05-1.6,5.55,5.55,0,0,1-.46-2.16,4.81,4.81,0,0,1,1.47-3.49,5.19,5.19,0,0,1,1.62-1,5,5,0,0,1,2-.39,6.14,6.14,0,0,1,1.29.14,4.71,4.71,0,0,1,1.15.44,5,5,0,0,1,.91.68,3.59,3.59,0,0,1,.69.9l-2,1.54a2.29,2.29,0,0,0-.9-.9,2.41,2.41,0,0,0-1.25-.35,1.92,1.92,0,0,0-.91.2,1.94,1.94,0,0,0-.7.54A2.38,2.38,0,0,0,22,4a3.28,3.28,0,0,0,0,2.1,2.55,2.55,0,0,0,.46.82,2.12,2.12,0,0,0,.73.52,2.15,2.15,0,0,0,.91.19,2.8,2.8,0,0,0,2.11-1H24.55v-2h4.09V9.93H26.41Z" fill="#f9f5ec"/><path d="M34.93,10a4.93,4.93,0,0,1-2.07-.43,5.4,5.4,0,0,1-1.59-1.14,5.26,5.26,0,0,1-1-1.6,4.91,4.91,0,0,1,1.08-5.32A5.29,5.29,0,0,1,32.94.41a5.21,5.21,0,0,1,4.1,0,5.18,5.18,0,0,1,1.59,1.15,5.31,5.31,0,0,1,1,1.61A5.24,5.24,0,0,1,40,5a5,5,0,0,1-1.43,3.44A5.27,5.27,0,0,1,37,9.54,4.9,4.9,0,0,1,34.93,10ZM32.66,5a3.17,3.17,0,0,0,.15,1,2.41,2.41,0,0,0,.42.83,2,2,0,0,0,.71.57,2.35,2.35,0,0,0,2,0,2,2,0,0,0,.71-.6,2.43,2.43,0,0,0,.41-.84A3.13,3.13,0,0,0,37.27,5a3.5,3.5,0,0,0-.14-1,2.48,2.48,0,0,0-.43-.82A2.09,2.09,0,0,0,36,2.62a2.28,2.28,0,0,0-1-.22,2.11,2.11,0,0,0-1.73.81,2.7,2.7,0,0,0-.4.84A3.48,3.48,0,0,0,32.66,5Z" fill="#f9f5ec"/></svg>